<svg width="104" height="64" viewBox="0 0 104 64" fill="none" xmlns="http://www.w3.org/2000/svg">
    <path d="M2.3645 1.79169H92.7825L102.335 56.1967C102.485 57.1385 102.144 58.9022 99.5817 58.9022H92.7825C92.6169 59.8653 91.822 61.7917 89.9672 61.7917H4.36841C3.70044 61.5919 2.3645 60.9008 2.3645 59.735V48.983V38.8096V1.79169Z" fill="#F28E27" />
    <path d="M92.7825 1.79169H2.3645V38.8096M92.7825 1.79169V38.8096M92.7825 1.79169L102.335 56.1967C102.485 57.1385 102.144 58.9022 99.5817 58.9022H92.7825M92.7825 58.9022C92.6169 59.8653 91.822 61.7917 89.9672 61.7917H4.36841C3.70044 61.5919 2.3645 60.9008 2.3645 59.735V48.983M92.7825 58.9022V48.983M2.3645 48.983H92.7825M2.3645 48.983V38.8096M92.7825 48.983V38.8096M2.3645 38.8096H92.7825" stroke="white" stroke-width="3" stroke-linejoin="round" />
</svg>
