<svg width="104" height="64" viewBox="0 0 104 64" fill="none" xmlns="http://www.w3.org/2000/svg">
    <path d="M102.363 6.95447C102.363 2.93588 98.6647 1.8382 96.8157 1.79169H7.91163C3.83374 1.79169 2.51443 5.23355 2.3645 6.95447V56.6289C2.3645 60.7591 6.06259 61.7917 7.91163 61.7917H96.8157C101.373 61.7917 102.413 58.3498 102.363 56.6289V6.95447Z" fill="#F28E27" />
    <path d="M13.9085 43.7917H49.2903M54.3876 43.7917H91.1187M30.6462 13.426H17.2531C15.1502 13.426 14.6662 15.0182 14.6871 15.8142V23.5613M30.6462 13.426H38.657C39.5124 13.5037 41.223 14.0901 41.223 15.8142V19.9499M30.6462 13.426V19.9499M30.6462 30.1433C34.4975 30.1433 37.7402 30.1433 38.657 30.1433C40.6597 30.1433 41.2021 28.5512 41.223 27.7551V19.9499M30.6462 30.1433C26.0846 30.1433 20.6691 30.1433 17.2531 30.1433C16.3978 30.2792 14.6871 29.9919 14.6871 27.7551V23.5613M30.6462 30.1433V23.5613M30.6462 19.9499H41.223M30.6462 19.9499V23.5613M14.6871 23.5613H30.6462M7.91163 1.79169H96.8157C98.6647 1.8382 102.363 2.93588 102.363 6.95447C102.363 10.9731 102.363 41.7452 102.363 56.6289C102.413 58.3498 101.373 61.7917 96.8157 61.7917H7.91163C6.06259 61.7917 2.3645 60.7591 2.3645 56.6289V6.95447C2.51443 5.23355 3.83374 1.79169 7.91163 1.79169Z" stroke="white" stroke-width="3" stroke-linejoin="round" />
</svg>
