<svg width="104" height="64" viewBox="0 0 104 64" fill="none" xmlns="http://www.w3.org/2000/svg">
    <path d="M96.8157 1.79181C98.6647 1.83231 102.363 2.78801 102.363 6.28685V49.5365C102.413 51.0349 101.373 54.0315 96.8157 54.0315H67.2445V61.7918H37.6733V54.0315H7.91163C6.06259 54.0315 2.3645 53.1325 2.3645 49.5365V6.28685C2.51443 4.78851 3.83374 1.79181 7.91163 1.79181H96.8157Z" fill="#F28E27"/>
    <path d="M37.6733 54.0315H7.91163C6.06259 54.0315 2.3645 53.1325 2.3645 49.5365V6.28685C2.51443 4.78851 3.83374 1.79181 7.91163 1.79181H96.8157C98.6647 1.83231 102.363 2.78801 102.363 6.28685C102.363 9.7857 102.363 36.5778 102.363 49.5365C102.413 51.0349 101.373 54.0315 96.8157 54.0315H67.2445M37.6733 54.0315V61.7918M37.6733 54.0315H67.2445M37.6733 61.7918H67.2445M37.6733 61.7918H27.4119H67.2445M67.2445 54.0315V61.7918M67.2445 61.7918H77.4358" stroke="white" stroke-width="3" stroke-linecap="round" stroke-linejoin="round"/>
    <path d="M52.3645 42.5C60.6488 42.5 67.3645 35.7843 67.3645 27.5C67.3645 19.2157 60.6488 12.5 52.3645 12.5C44.0802 12.5 37.3645 19.2157 37.3645 27.5C37.3645 35.7843 44.0802 42.5 52.3645 42.5Z" stroke="white" stroke-width="3" stroke-linecap="round" stroke-linejoin="round"/>
    <path d="M37.3645 27.5H67.3645" stroke="white" stroke-width="3" stroke-linecap="round" stroke-linejoin="round"/>
    <path d="M58.1337 27.5C58.1337 34.7146 55.8299 38.2385 52.3645 42.5C48.8991 38.2385 46.5953 34.7146 46.5953 27.5C46.5953 19.9315 48.8991 16.7615 52.3645 12.5C55.8299 16.7615 58.1337 19.8516 58.1337 27.5Z" stroke="white" stroke-width="3" stroke-linecap="round" stroke-linejoin="round"/>
</svg>
