<svg width="104" height="64" viewBox="0 0 104 64" fill="none" xmlns="http://www.w3.org/2000/svg">
    <path d="M96.8157 1.79181C98.6647 1.83231 102.363 2.78801 102.363 6.28685V49.5365C102.413 51.0349 101.373 54.0315 96.8157 54.0315H67.2445V61.7918H37.6733V54.0315H7.91163C6.06259 54.0315 2.3645 53.1325 2.3645 49.5365V6.28685C2.51443 4.78851 3.83374 1.79181 7.91163 1.79181H96.8157Z" fill="#F28E27" />
    <path d="M37.6733 54.0315H7.91163C6.06259 54.0315 2.3645 53.1325 2.3645 49.5365V6.28685C2.51443 4.78851 3.83374 1.79181 7.91163 1.79181H96.8157C98.6647 1.83231 102.363 2.78801 102.363 6.28685C102.363 9.7857 102.363 36.5778 102.363 49.5365C102.413 51.0349 101.373 54.0315 96.8157 54.0315H67.2445M37.6733 54.0315V61.7918M37.6733 54.0315H67.2445M37.6733 61.7918H67.2445M37.6733 61.7918H27.4119H67.2445M67.2445 54.0315V61.7918M67.2445 61.7918H77.4358" stroke="white" stroke-width="3" stroke-linecap="round" stroke-linejoin="round" />
    <path d="M68.3645 27.9068C68.3645 30.8236 67.5854 33.5538 66.2249 35.9057C63.4562 40.692 58.2849 43.9068 52.3645 43.9068C46.4441 43.9068 41.2728 40.692 38.5041 35.9057C37.1436 33.5538 36.3645 30.8236 36.3645 27.9068C36.3645 24.99 37.1436 22.2598 38.5041 19.9079C41.2728 15.1216 46.4441 11.9068 52.3645 11.9068C58.2849 11.9068 63.4562 15.1216 66.2249 19.9079C67.5854 22.2598 68.3645 24.99 68.3645 27.9068Z" fill="#F28E27" stroke="white" stroke-width="3" stroke-linecap="round" stroke-linejoin="round" />
</svg>
