<svg width="100" height="100" viewBox="0 0 100 100" fill="none" xmlns="http://www.w3.org/2000/svg">
    <path d="M54.8602 50.0335L86.5083 18.4926C87.8306 17.1579 87.8306 14.9958 86.5083 13.6612C85.2095 12.3027 83.0646 12.2619 81.7159 13.57L50.0678 45.111L18.8266 13.57C18.1861 12.887 17.2949 12.5 16.3626 12.5C15.4303 12.5 14.5391 12.887 13.8986 13.57C12.7263 14.8595 12.7263 16.8385 13.8986 18.128L45.1398 49.6233L13.4917 81.1187C12.1694 82.4533 12.1694 84.6155 13.4917 85.9501C14.1211 86.6001 14.9869 86.9624 15.8879 86.9529C16.8063 87.0279 17.7167 86.7329 18.4197 86.1324L50.0678 54.5915L81.7159 86.4971C82.3454 87.1471 83.2111 87.5093 84.1121 87.4998C85.0121 87.5041 85.8759 87.1426 86.5083 86.4971C87.8306 85.1624 87.8306 83.0003 86.5083 81.6656L54.8602 50.0335Z" fill="#222222"/>
    <path d="M82.5839 48.9583C82.5839 47.2324 81.1847 45.8333 79.4589 45.8333C77.733 45.8333 76.3339 47.2324 76.3339 48.9583C76.4564 56.1597 73.7098 63.1141 68.6996 68.2884C63.6895 73.4627 56.8271 76.432 49.6255 76.5416C42.4239 76.432 35.5616 73.4627 30.5514 68.2884C25.5412 63.1141 22.7946 56.1597 22.9172 48.9583C22.9172 47.2324 21.5181 45.8333 19.7922 45.8333C18.0663 45.8333 16.6672 47.2324 16.6672 48.9583C16.5725 66.0832 29.4699 80.4937 46.5005 82.2916V92.7083C46.5005 94.4341 47.8996 95.8333 49.6255 95.8333C51.3514 95.8333 52.7505 94.4341 52.7505 92.7083V82.6249C69.9096 80.8153 82.8516 66.2104 82.5839 48.9583Z" fill="#222222"/>
    <path fill-rule="evenodd" clip-rule="evenodd" d="M70.8333 49.9999C70.8333 61.5058 61.5059 70.8332 50 70.8332C38.4941 70.8332 29.1667 61.5058 29.1667 49.9999V29.1666C29.1667 17.6607 38.4941 8.33325 50 8.33325C61.5059 8.33325 70.8333 17.6607 70.8333 29.1666V49.9999ZM50 14.5833C41.9458 14.5833 35.4167 21.1124 35.4167 29.1666V49.9999C35.4167 58.0541 41.9458 64.5832 50 64.5832C58.0542 64.5832 64.5833 58.0541 64.5833 49.9999V29.1666C64.5833 21.1124 58.0542 14.5833 50 14.5833Z" fill="#222222"/>
</svg>
