<svg width="100" height="100" viewBox="0 0 100 100" fill="none" xmlns="http://www.w3.org/2000/svg">
    <path d="M82.5839 48.9584C82.5839 47.2325 81.1848 45.8334 79.4589 45.8334C77.733 45.8334 76.3339 47.2325 76.3339 48.9584C76.4565 56.1598 73.7099 63.1142 68.6997 68.2885C63.6896 73.4629 56.8272 76.4321 49.6256 76.5417C42.424 76.4321 35.5616 73.4629 30.5515 68.2885C25.5413 63.1142 22.7947 56.1598 22.9173 48.9584C22.9173 47.2325 21.5182 45.8334 19.7923 45.8334C18.0664 45.8334 16.6673 47.2325 16.6673 48.9584C16.5726 66.0834 29.47 80.4938 46.5006 82.2917V92.7084C46.5006 94.4343 47.8997 95.8334 49.6256 95.8334C51.3515 95.8334 52.7506 94.4343 52.7506 92.7084V82.625C69.9096 80.8154 82.8516 66.2105 82.5839 48.9584Z" fill="#E5552F"/>
    <path fill-rule="evenodd" clip-rule="evenodd" d="M70.8334 50C70.8334 61.506 61.506 70.8334 50.0001 70.8334C38.4942 70.8334 29.1667 61.506 29.1667 50V29.1667C29.1667 17.6608 38.4942 8.33337 50.0001 8.33337C61.506 8.33337 70.8334 17.6608 70.8334 29.1667V50ZM50.0001 14.5834C41.9459 14.5834 35.4167 21.1126 35.4167 29.1667V50C35.4167 58.0542 41.9459 64.5834 50.0001 64.5834C58.0542 64.5834 64.5834 58.0542 64.5834 50V29.1667C64.5834 21.1126 58.0542 14.5834 50.0001 14.5834Z" fill="#E5552F"/>
</svg>
