<svg width="104" height="64" viewBox="0 0 104 64" fill="none" xmlns="http://www.w3.org/2000/svg">
    <path d="M102.365 1.79176H2.3645V61.7917H102.365V1.79176Z" fill="#F28E27" />
    <path d="M52.2362 12.1386V17.4771M52.2362 17.4771C48.9212 17.4771 44.1114 17.4771 44.1114 23.9031C44.1114 31.5436 47.6702 31.5436 52.2362 31.5436C56.8023 31.5436 60.748 32.7414 60.748 39.2267C60.748 45.712 55.0735 46.6742 52.2362 46.3447M52.2362 17.4771C56.9354 17.4771 60.748 18.1296 60.748 23.9031M52.2362 46.3447V51.2878M52.2362 46.3447C45.7363 46.3447 44.1114 41.5994 44.1114 39.2267M2.3645 1.79176H102.364V61.7917H2.3645V1.79176Z" stroke="white" stroke-width="3" stroke-linecap="round" stroke-linejoin="round" />
    <path d="M14.2335 32.5193H31.0176M72.4742 32.5193H90.0212" stroke="white" stroke-width="3" stroke-linecap="round" stroke-linejoin="round" />
</svg>
